<?xml version="1.0" encoding="UTF-8"?>
<svg width="120px" height="31px" viewBox="0 0 120 31" version="1.1" xmlns="http://www.w3.org/2000/svg" xmlns:xlink="http://www.w3.org/1999/xlink">
    <!-- Generator: Sketch 49.1 (51147) - http://www.bohemiancoding.com/sketch -->
    <title>Beem_it_Logo</title>
    <desc>Created with Sketch.</desc>
    <defs></defs>
    <g id="Design" stroke="none" stroke-width="1" fill="none" fill-rule="evenodd">
        <g id="Desktop-HD-1" transform="translate(-49.000000, -39.000000)" fill="#FF2369">
            <g id="Beem_it_Logo" transform="translate(49.000000, 39.000000)">
                <g id="Beem_it">
                    <path d="M58.1384831,25.4067181 C57.5685508,25.1635284 56.8937878,25.293675 56.4853002,25.7554681 C55.2387088,27.1651664 53.4048488,28.0574853 51.3640361,28.0574853 C47.3609661,28.0574853 44.1550971,24.6250371 44.6112596,20.5867526 C44.9555485,17.5415371 47.4202889,15.0775716 50.5026366,14.7007612 C53.0654357,14.3878216 55.3925688,15.4950026 56.7927494,17.3282784 L50.4774447,20.2462871 L49.7693634,23.7850974 L60.7050745,18.7337009 C59.503991,14.5556491 55.5006501,11.5398302 50.825526,11.7888991 C45.9775801,12.0470543 42.0137878,15.8945284 41.6795214,20.6728043 C41.2883702,26.2696405 45.7744199,30.9300629 51.3640361,30.9300629 C54.2727494,30.9300629 56.8824108,29.6681491 58.6618239,27.6689164 C59.3116659,26.9388129 59.0424108,25.7926147 58.1384831,25.4067181 Z M29.3655711,23.7850974 L40.301553,18.7337009 C39.1004695,14.5556491 35.0968578,11.5398302 30.4220045,11.7888991 C25.5743296,12.0470543 21.6099955,15.8945284 21.2762709,20.6728043 C20.8848488,26.2696405 25.3708984,30.9300629 30.9605147,30.9300629 C33.869228,30.9300629 36.4791603,29.6681491 38.2583025,27.6689164 C38.9081445,26.9388129 38.6388894,25.7926147 37.7349616,25.4067181 C37.1650293,25.1635284 36.4902664,25.293675 36.0820497,25.7554681 C34.8351874,27.1651664 33.0015982,28.0574853 30.9605147,28.0574853 C26.9574447,28.0574853 23.7515756,24.6250371 24.2077381,20.5867526 C24.5520271,17.5415371 27.0167675,15.0775716 30.0988442,14.7007612 C32.6619142,14.3878216 34.9893183,15.4950026 36.389228,17.3282784 L30.0739233,20.2462871 L29.3655711,23.7850974 Z M9.71103386,11.7755371 C9.37622573,11.7755371 9.04575169,11.7926405 8.71988262,11.825244 C8.08629345,11.8888474 7.57134989,12.3583905 7.4470158,12.9743819 C7.25604515,13.9217526 8.04728668,14.7828043 9.02110158,14.684994 C9.36782844,14.6502526 9.72213995,14.6414336 10.08214,14.6604078 C13.5355937,14.8440026 16.3259323,17.6048733 16.4990248,21.0124681 C16.6951422,24.8655543 13.5743296,28.0617612 9.71103386,28.0617612 C5.96313318,28.0617612 2.91410384,25.0536922 2.91410384,21.3561405 C2.91410384,20.8320802 2.97721896,20.3221836 3.09342664,19.8323302 L4.40367494,13.3324853 C4.4001535,13.3348905 4.39663205,13.3372957 4.39256885,13.3399681 L7.08241084,0.000347413793 L4.11112415,0.000347413793 L0.171711061,19.5386319 L0.174961625,19.5394336 C0.0565869074,20.1460716 -0.00381941309,20.7735543 0.000243792325,21.4152009 C0.0322076749,26.6258733 4.34543567,30.8921147 9.62706095,30.9362095 C15.0289571,30.9813733 19.4220948,26.6747784 19.4220948,21.3561405 C19.4220948,16.0650284 15.0741941,11.7755371 9.71103386,11.7755371 Z M101.646203,27.4564595 L87.817219,27.4567267 L89.2482799,20.3590629 C89.6280542,18.4760802 89.2415079,16.5599595 88.1604244,14.9637267 C87.0793409,13.367494 85.43293,12.2822267 83.524307,11.9075543 C83.0543296,11.8156233 82.5748713,11.768856 82.0981219,11.768856 C79.6826817,11.768856 77.4912596,12.954606 76.1574447,14.8105974 C75.0760903,13.3038905 73.4797923,12.2784853 71.6372641,11.9169078 C71.1675576,11.8247095 70.6878284,11.7782095 70.2113499,11.7782095 C66.7497698,11.7782095 63.7467901,14.2114422 63.0706727,17.5639853 L60.4913499,30.3581664 L63.4623657,30.3581664 L65.9290023,18.124925 C66.3997923,15.7889681 68.700921,14.272106 71.0686862,14.7365716 C73.4367223,15.2013043 74.9739684,17.4717871 74.5031783,19.807744 L72.3759549,30.3581664 L75.3475124,30.3581664 L77.8160451,18.1158388 C78.2868352,15.7798819 80.5879639,14.2627526 82.9557291,14.7272181 C85.3234944,15.1919509 86.8610113,17.4621664 86.3902212,19.7983905 L84.2727494,30.3578991 L104.061102,30.3587009 L104.061372,30.3581664 L104.062727,30.3581664 L107.665436,12.3514422 L104.669228,12.3514422 L101.646203,27.4564595 Z M118.363585,12.3583905 L115.712208,12.3562526 L117.064713,5.59611466 L114.068777,5.59611466 L112.716271,12.3535802 L110.176497,12.3514422 L109.619837,15.2301664 L112.14065,15.2298991 L109.113562,30.3581664 L112.110853,30.3581664 L115.1374,15.2293647 L118.362772,15.2290974 C119.162682,15.2288302 119.812524,14.5917267 119.8174,13.8025629 C119.822275,13.0069853 119.170266,12.3591922 118.363585,12.3583905 Z M108.803675,6.74899397 L108.799612,6.7679681 C108.662546,7.445425 108.059567,7.93287328 107.359341,7.93287328 C106.432388,7.93287328 105.737038,7.09614052 105.91907,6.19954569 L105.922591,6.18083879 C106.059928,5.50311466 106.662907,5.01566638 107.363133,5.01566638 C108.290086,5.01566638 108.985436,5.8521319 108.803675,6.74899397 Z" id="Fill-1"></path>
                </g>
            </g>
        </g>
    </g>
</svg>